<svg xmlns="http://www.w3.org/2000/svg" viewBox="0 0 32 32">
  <defs>
    <clipPath id="s">
      <rect x="6.9" y="9.4" width="18.2" height="8" rx="1.8"/>
    </clipPath>
  </defs>
  <circle cx="10.4" cy="6.1" r="3" fill="#18181b"/>
  <circle cx="21.6" cy="6.1" r="3" fill="#18181b"/>
  <circle cx="10.4" cy="6.4" r="1.3" fill="#f7f7f8"/>
  <circle cx="21.6" cy="6.4" r="1.3" fill="#f7f7f8"/>
  <path d="M8.2 10 C8.2 5.3 11.6 3.3 16 3.3 C20.4 3.3 23.8 5.3 23.8 10 Z" fill="#18181b"/>
  <rect x="3.9" y="8.2" width="24.2" height="20.6" rx="3" fill="#ea580c" stroke="#18181b" stroke-width="1.7"/>
  <rect x="6.9" y="9.4" width="18.2" height="8" rx="1.8" fill="#f7f7f8" stroke="#18181b" stroke-width="1.4"/>
  <g clip-path="url(#s)">
    <path d="M8.6 9.0 H14.3 L13.5 17.6 H9.5 Z" fill="#18181b"/>
    <path d="M23.4 9.0 H17.7 L18.5 17.6 H22.5 Z" fill="#18181b"/>
    <circle cx="11.5" cy="12.7" r="1.5" fill="#f7f7f8"/>
    <circle cx="20.5" cy="12.7" r="1.5" fill="#f7f7f8"/>
    <circle cx="11.5" cy="12.9" r="0.62" fill="#18181b"/>
    <circle cx="20.5" cy="12.9" r="0.62" fill="#18181b"/>
    <ellipse cx="16" cy="15.7" rx="1.45" ry="1.05" fill="#18181b"/>
  </g>
  <g fill="#ea580c" stroke="#18181b" stroke-width="1.25">
    <rect x="6.50" y="19.50" width="5.17" height="2.62" rx="0.84"/>
    <rect x="13.42" y="19.50" width="5.17" height="2.62" rx="0.84"/>
    <rect x="20.33" y="19.50" width="5.17" height="2.62" rx="0.84"/>
    <rect x="6.50" y="23.88" width="5.17" height="2.62" rx="0.84"/>
    <rect x="13.42" y="23.88" width="5.17" height="2.62" rx="0.84"/>
    <rect x="20.33" y="23.88" width="5.17" height="2.62" rx="0.84"/>
  </g>
</svg>
